<?xml version="1.0" encoding="UTF-8" standalone="no"?>
<svg
   xmlns:dc="http://purl.org/dc/elements/1.1/"
   xmlns:cc="http://creativecommons.org/ns#"
   xmlns:rdf="http://www.w3.org/1999/02/22-rdf-syntax-ns#"
   xmlns:svg="http://www.w3.org/2000/svg"
   xmlns="http://www.w3.org/2000/svg"
   xmlns:sodipodi="http://sodipodi.sourceforge.net/DTD/sodipodi-0.dtd"
   xmlns:inkscape="http://www.inkscape.org/namespaces/inkscape"
   width="48.058769mm"
   height="48.088924mm"
   viewBox="0 0 48.058769 48.088925"
   version="1.1"
   id="svg22227"
   inkscape:version="1.0.2 (e86c8708, 2021-01-15)"
   sodipodi:docname="avatar.svg">
  <defs
     id="defs22221">
    <clipPath
       clipPathUnits="userSpaceOnUse"
       id="clipPath388">
      <path
         d="m 188.584,406.516 c 0,-31.902 25.863,-57.764 57.765,-57.764 v 0 c 31.903,0 57.766,25.862 57.766,57.764 v 0 c 0,31.904 -25.863,57.765 -57.766,57.765 v 0 c -31.902,0 -57.765,-25.861 -57.765,-57.765"
         id="path386" />
    </clipPath>
  </defs>
  <sodipodi:namedview
     id="base"
     pagecolor="#ffffff"
     bordercolor="#666666"
     borderopacity="1.0"
     inkscape:pageopacity="0.0"
     inkscape:pageshadow="2"
     inkscape:zoom="2.8904494"
     inkscape:cx="117.28052"
     inkscape:cy="85.94471"
     inkscape:document-units="mm"
     inkscape:current-layer="layer1"
     inkscape:document-rotation="0"
     showgrid="false"
     inkscape:window-width="1792"
     inkscape:window-height="1075"
     inkscape:window-x="0"
     inkscape:window-y="23"
     inkscape:window-maximized="0" />
  <metadata
     id="metadata22224">
    <rdf:RDF>
      <cc:Work
         rdf:about="">
        <dc:format>image/svg+xml</dc:format>
        <dc:type
           rdf:resource="http://purl.org/dc/dcmitype/StillImage" />
        <dc:title />
      </cc:Work>
    </rdf:RDF>
  </metadata>
  <g
     inkscape:label="Layer 1"
     inkscape:groupmode="layer"
     id="layer1"
     transform="translate(-90.875377,-113.42532)">
    <g
       id="g390"
       transform="matrix(0.35277777,0,0,-0.35277777,135.28297,133.80353)"
       style="fill:#b7d7ff;fill-opacity:1"
       inkscape:export-xdpi="528.51959"
       inkscape:export-ydpi="528.51959">
      <path
         d="m 0,0 c 0,-31.903 -25.862,-57.765 -57.765,-57.765 -31.903,0 -57.765,25.862 -57.765,57.765 0,31.903 25.862,57.765 57.765,57.765 C -25.862,57.765 0,31.903 0,0"
         style="fill:#b7d7ff;fill-opacity:1;fill-rule:nonzero;stroke:none"
         id="path392" />
    </g>
    <g
       id="g394"
       transform="matrix(0.35277777,0,0,-0.35277777,118.13639,146.70662)"
       inkscape:export-xdpi="528.51959"
       inkscape:export-ydpi="528.51959">
      <path
         d="m 0,0 c 0.387,-0.137 0.785,-0.287 1.185,-0.424 -6.607,-3.303 -13.427,-2.767 -20.32,-0.361 0.96,0.286 1.932,0.561 2.905,0.81 0.049,0.013 0.074,0.037 0.112,0.062 0.037,-0.025 0.05,-0.049 0.087,-0.062 4.438,-1.87 11.356,-3.378 15.719,-0.623 C -0.074,-0.449 0.013,-0.224 0,0"
         style="fill:#9d9e9e;fill-opacity:1;fill-rule:nonzero;stroke:none"
         id="path396" />
    </g>
    <g
       id="g398"
       transform="matrix(0.35277777,0,0,-0.35277777,126.91,154.28824)"
       inkscape:export-xdpi="528.51959"
       inkscape:export-ydpi="528.51959">
      <path
         d="M 0,0 C 0,-0.062 0.024,-0.112 0.05,-0.174 -16.817,-1.122 -33.696,-0.86 -50.5,0.922 -54.577,1.346 -61.159,0.91 -64.786,2.78 c -0.798,0.137 -1.596,0.262 -2.406,0.387 0.037,1.47 0.586,2.692 1.671,3.64 0.984,1.483 2.368,2.804 3.665,4.013 4.799,4.488 10.358,7.393 16.417,9.412 7.48,-3.378 16.305,-4.562 23.436,0.225 C -12.018,16.804 -1.01,11.868 0,0"
         style="fill:#9d9e9e;fill-opacity:1;fill-rule:nonzero;stroke:none"
         id="path400" />
    </g>
    <g
       id="g402"
       transform="matrix(0.35277777,0,0,-0.35277777,117.65269,146.5659)"
       inkscape:export-xdpi="528.51959"
       inkscape:export-ydpi="528.51959">
      <path
         d="m 0,0 c -0.05,0.062 -0.1,0.125 -0.125,0.212 -0.798,2.306 -0.96,5.061 -0.474,7.492 -0.56,-0.012 -1.122,0.013 -1.708,0.1 0.25,-1.222 0.225,-0.873 0.026,-2.518 -0.05,-0.325 -0.249,-0.611 -0.612,-0.611 -2.492,0.05 -4.899,0.262 -7.304,0.948 -1.159,0.323 -2.344,0.947 -3.404,1.034 0.063,-2.057 -0.062,-4.176 -0.236,-6.22 0,-0.05 -0.025,-0.088 -0.038,-0.125 C -9.699,-0.798 -3.939,-2.194 0,0 m 2.556,-0.823 c -0.4,0.137 -0.798,0.287 -1.185,0.424 0.013,-0.224 -0.074,-0.449 -0.311,-0.598 -4.364,-2.755 -11.282,-1.247 -15.72,0.623 -0.037,0.013 -0.05,0.038 -0.087,0.062 -0.038,-0.024 -0.063,-0.049 -0.112,-0.062 -0.973,-0.249 -1.945,-0.523 -2.905,-0.81 6.893,-2.406 13.713,-2.942 20.32,0.361 m 5.26,33.796 C 8.813,40.901 8.552,48.705 8.564,56.708 6.632,56.421 2.244,55.873 2.543,55.412 2.83,54.988 2.456,54.402 1.97,54.402 c -2.357,0.025 -4.712,0.062 -7.056,0.174 0.137,-0.012 -5.386,0.412 -4.563,-0.137 0.536,-0.374 0.337,-1.222 -0.336,-1.234 -4.177,-0.112 -7.804,0.399 -11.731,1.82 -0.972,-5.149 -2.68,-12.691 0.1,-17.465 0.224,-0.386 -0.05,-0.96 -0.524,-0.935 -0.673,0.038 -1.259,0.112 -1.844,0.237 1.047,-1.346 2.318,-2.356 3.951,-3.166 0.175,-0.088 0.262,-0.225 0.287,-0.362 1.845,-0.125 3.44,-0.561 4.961,-1.383 -0.012,0.174 -0.037,0.386 -0.062,0.673 -0.037,0.548 0.586,0.748 0.997,0.573 1.883,-0.81 3.777,-1.571 5.697,-2.281 -0.124,0.436 -0.212,0.873 -0.237,1.346 -0.012,0.224 0.138,0.449 0.325,0.561 1.982,1.222 5.758,-0.86 7.716,-1.92 0.124,0.063 0.274,0.1 0.436,0.063 1.384,-0.337 2.531,1.097 1.77,2.331 -0.81,1.321 -2.58,0.76 -3.116,-0.474 -0.025,-0.062 -0.075,-0.074 -0.112,-0.1 -0.287,-0.411 -1.072,-0.311 -1.072,0.312 0.049,4.151 -0.549,8.153 -1.421,12.204 -0.075,0.399 0.461,0.536 0.611,0.162 1.333,-3.527 1.906,-7.267 1.982,-11.032 1.134,1.184 3.291,1.085 4.238,-0.549 0.149,-0.249 0.237,-0.498 0.299,-0.748 0.486,0.549 1.085,0.998 1.72,1.309 0.262,0.125 0.673,0.038 0.723,-0.299 0.088,-0.548 0.237,-1.072 0.424,-1.596 0.549,0.2 1.11,0.362 1.683,0.487 m 18.475,-55.037 c -0.025,0.062 -0.05,0.111 -0.05,0.174 -1.01,11.868 -12.017,16.804 -22.003,20.456 -7.131,-4.786 -15.956,-3.602 -23.436,-0.224 -6.058,-2.019 -11.618,-4.924 -16.417,-9.412 -1.297,-1.209 -2.68,-2.53 -3.665,-4.013 -1.085,-0.948 -1.634,-2.17 -1.671,-3.641 0.81,-0.125 1.608,-0.249 2.406,-0.386 3.628,-1.87 10.21,-1.434 14.286,-1.858 16.804,-1.782 33.683,-2.044 50.55,-1.096 m -37.847,76.216 c -0.075,0.088 -0.386,0.387 -1.035,1.122 -0.349,0.399 -0.149,1.184 0.474,1.135 0.935,-0.088 12.653,-0.387 12.379,0.012 -0.287,0.436 0.099,1.01 0.586,1.01 3.714,0.025 8.015,0.025 11.281,2.032 -1.782,1.072 -3.278,2.294 -4.699,3.889 -0.212,0.237 -0.249,0.611 0,0.836 1.957,1.782 4.75,3.989 5.883,6.419 0.699,1.484 1.073,1.247 -0.236,2.319 -0.661,0.524 -2.231,0.686 -3.042,0.898 -5.286,1.346 -10.596,1.483 -15.981,1.034 0.025,0.038 0.037,0.063 0.05,0.1 0.074,0.25 0.162,0.511 0.249,0.761 7.217,1.333 14.485,0.399 21.317,-2.281 0.398,-0.15 0.673,-0.599 0.411,-1.01 -1.347,-2.157 -2.792,-4.214 -4.537,-6.072 -0.748,-0.797 -2.531,-1.882 -2.356,-3.203 0.149,-1.048 3.515,-2.693 4.35,-3.154 0.299,-0.162 0.337,-0.449 0.236,-0.698 0.013,-0.162 -0.037,-0.324 -0.186,-0.461 -1.397,-1.097 -2.506,-1.559 -4.264,-1.995 -0.011,0 -0.037,0 -0.05,-0.012 0.487,-4.476 0.748,-8.963 0.836,-13.476 0.037,-2.132 0.15,-4.314 -0.062,-6.445 C 9.96,36.251 9.873,35.59 9.773,34.93 9.848,34.169 9.674,33.646 9.324,33.297 9.412,33.272 9.486,33.222 9.536,33.122 11.855,29.233 12.877,25.144 12.84,20.631 12.827,20.095 12.254,19.784 11.806,20.033 9.212,21.442 9.698,17.602 9.3,16.119 8.776,14.236 8.028,12.528 7.143,10.796 6.956,10.434 6.395,10.359 6.121,10.671 4.774,12.154 4.774,9.96 3.029,8.851 2.156,8.303 1.284,7.966 0.387,7.804 0.337,5.311 0.523,3.029 1.072,0.549 V 0.524 c 0.113,0.112 0.262,0.174 0.474,0.124 0.798,-0.211 1.633,-0.436 2.468,-0.685 0.349,0.162 0.648,0.012 0.798,-0.25 10.409,-3.178 22.937,-9.499 22.825,-21.603 0,-0.174 -0.062,-0.299 -0.137,-0.411 0.387,-0.462 0.175,-1.422 -0.648,-1.471 -13.389,-0.798 -26.802,-0.749 -40.178,0.199 -6.158,0.436 -12.292,1.06 -18.412,1.87 -3.104,0.411 -8.976,-0.013 -11.295,2.393 -0.199,0.212 -0.286,0.512 -0.199,0.786 3.029,10.483 18.238,17.814 28.123,19.123 0.063,1.969 0.2,3.976 0.474,5.933 -0.436,-0.174 -0.823,-0.511 -1.172,-1.096 -0.162,-0.275 -0.586,-0.424 -0.86,-0.225 -2.443,1.683 -4.637,3.578 -6.42,5.959 -1.608,2.144 -2.506,7.654 -5.074,4.861 -0.274,-0.299 -0.897,-0.261 -1.072,0.137 -2.081,4.675 -3.204,9.425 -2.767,14.548 0.037,0.449 0.661,0.449 0.698,0 0.199,-2.692 0.436,-5.373 1.122,-8.003 0.523,-2.069 1.034,-5.734 3.366,-3.204 0.374,0.387 0.984,0.162 1.134,-0.299 1.596,-4.737 4.737,-11.044 9.786,-11.207 1.134,-0.037 1.396,0.225 2.63,0.038 1.371,-0.2 10.559,-4.5 9.686,-0.087 -0.049,0.212 0.025,0.399 0.138,0.523 0.012,0.361 0.324,0.748 0.785,0.661 3.129,-0.574 6.27,1.159 7.542,4.039 0.186,0.424 0.934,0.411 1.122,0 0.685,-1.496 1.894,2.842 2.019,3.291 0.498,1.745 0.686,3.528 0.785,5.335 0.025,0.411 0.412,0.798 0.861,0.648 1.059,-0.373 1.296,-0.436 1.769,-0.673 -0.112,3.665 -0.922,7.043 -2.418,10.41 C 8.963,32.125 8.876,32.063 8.751,32.05 7.778,31.9 6.856,31.651 5.946,31.302 5.647,31.19 5.386,31.427 5.285,31.676 5.086,32.188 4.961,32.698 4.874,33.222 4.251,32.885 3.765,32.437 3.291,31.9 2.979,30.43 1.421,29.32 -0.262,29.707 c -0.324,0.074 -0.461,0.324 -0.449,0.585 -1.769,0.499 -6.594,2.307 -5.759,-0.311 0.15,-0.461 -0.349,-0.985 -0.822,-0.811 -1.983,0.724 -3.94,1.509 -5.885,2.319 0.088,-0.274 0.175,-0.561 0.262,-0.835 0.312,-0.536 -0.336,-1.309 -0.898,-0.898 -1.869,1.384 -3.714,2.095 -6.07,2.269 -0.374,0.038 -0.574,0.312 -0.611,0.611 -0.05,0.012 -0.088,0.012 -0.137,0.037 -2.356,1.147 -3.989,2.681 -5.323,4.937 -0.025,0.037 -0.05,0.087 -0.05,0.137 -0.125,0.424 0.274,0.922 0.735,0.761 0.674,-0.3 1.372,-0.487 2.107,-0.586 -2.281,5.223 -0.598,12.366 0.873,17.527 0.05,0.175 0.174,0.224 0.299,0.212 0.075,0.15 0.237,0.249 0.448,0.187 2.357,-0.636 6.309,-2.157 8.59,-1.384 0.648,0.212 1.271,-0.224 1.396,-0.312"
         style="fill:#1c1c1b;fill-opacity:1;fill-rule:nonzero;stroke:none"
         id="path404" />
    </g>
    <g
       id="g406"
       transform="matrix(0.35277777,0,0,-0.35277777,122.266,120.83912)"
       inkscape:export-xdpi="528.51959"
       inkscape:export-ydpi="528.51959">
      <path
         d="m 0,0 c 1.309,-1.072 0.935,-0.835 0.236,-2.319 -1.133,-2.431 -3.926,-4.637 -5.883,-6.42 -0.249,-0.224 -0.212,-0.598 0,-0.835 1.42,-1.595 2.917,-2.817 4.699,-3.889 -3.266,-2.007 -7.567,-2.007 -11.281,-2.032 -0.487,0 -0.874,-0.574 -0.586,-1.01 0.274,-0.399 -11.444,-0.1 -12.379,-0.013 -0.623,0.05 -0.823,-0.735 -0.474,-1.134 0.648,-0.735 0.96,-1.035 1.035,-1.122 -0.125,0.087 -0.748,0.524 -1.396,0.312 -2.282,-0.773 -6.233,0.748 -8.59,1.383 -0.212,0.063 -0.373,-0.037 -0.448,-0.187 -0.125,0.013 -0.249,-0.037 -0.299,-0.212 -1.471,-5.16 -3.155,-12.303 -0.873,-17.526 -0.736,0.099 -1.433,0.286 -2.107,0.586 -0.461,0.161 -0.86,-0.337 -0.735,-0.761 l -0.973,-0.15 c -0.399,1.671 -0.561,3.366 -0.461,5.186 0.025,0.374 -0.61,0.474 -0.673,0.087 -0.062,-0.411 -0.112,-0.822 -0.137,-1.234 -2.306,0.249 -4.912,-1.097 -4.912,-3.59 l -1.77,-0.062 c -0.013,0.411 -0.05,0.785 -0.162,1.122 -0.1,0.299 -0.349,0.486 -0.661,0.498 -1.67,0.088 2.481,10.547 2.93,12.03 0.075,0.262 -0.237,0.437 -0.436,0.336 -0.063,0.025 -0.138,0.05 -0.237,0.05 -1.197,-0.124 -2.257,-0.436 -3.304,-0.909 -0.299,4.986 -0.411,9.935 2.68,14.198 0.275,0.374 -0.087,1.035 -0.548,0.972 -0.848,-0.112 -1.695,-0.211 -2.543,-0.324 1.296,0.661 2.655,1.185 4.151,1.596 0.536,0.162 0.524,0.723 0.212,0.998 0.449,1.695 1.907,6.332 2.842,6.432 -0.237,-0.2 1.384,-2.419 1.621,-2.743 h -0.013 c 0.025,-0.024 0.037,-0.037 0.037,-0.037 0.212,-0.25 0.562,-0.399 0.861,-0.199 4.65,3.141 9.611,5.509 15.059,6.88 1.284,0.313 6.682,1.908 7.118,0.998 0.062,-0.125 -1.845,-4.388 -1.895,-4.562 -0.237,-0.811 0.947,-1.185 1.272,-0.462 5.385,0.449 10.695,0.312 15.981,-1.035 C -2.231,0.686 -0.661,0.523 0,0"
         style="fill:#805126;fill-opacity:1;fill-rule:nonzero;stroke:none"
         id="path408" />
    </g>
    <g
       id="g410"
       transform="matrix(0.35277777,0,0,-0.35277777,119.14787,137.91113)"
       inkscape:export-xdpi="528.51959"
       inkscape:export-ydpi="528.51959">
      <path
         d="M 0,0 C 0.411,0.71 -0.486,1.271 -1.06,0.823 -2.306,-0.174 -3.328,-1.01 -4.974,-1.247 -6.433,-1.458 -7.754,-1.122 -9.1,-0.586 -9.461,-0.437 -9.761,-0.985 -9.486,-1.234 -6.931,-3.503 -1.808,-3.054 0,0 M 7.205,-2.755 C 6.731,-2.518 6.495,-2.456 5.436,-2.082 4.986,-1.932 4.6,-2.319 4.575,-2.73 4.476,-4.538 4.288,-6.32 3.79,-8.065 3.665,-8.514 2.456,-12.853 1.771,-11.356 c -0.188,0.411 -0.936,0.423 -1.123,0 -1.271,-2.88 -4.413,-4.613 -7.542,-4.04 -0.46,0.088 -0.773,-0.299 -0.785,-0.66 -0.112,-0.125 -0.187,-0.312 -0.137,-0.524 0.873,-4.413 -8.315,-0.112 -9.686,0.087 -1.234,0.187 -1.496,-0.074 -2.63,-0.037 -5.049,0.162 -8.191,6.47 -9.786,11.207 -0.15,0.461 -0.761,0.686 -1.135,0.299 -2.331,-2.53 -2.842,1.135 -3.365,3.204 -0.686,2.63 -0.923,5.311 -1.123,8.003 -0.037,0.449 -0.66,0.449 -0.697,0 l -0.25,0.05 c 0.113,0.387 -0.187,0.872 -0.698,0.748 -3.59,-0.823 -1.919,3.627 -1.982,6.47 l 1.77,0.062 c 0,-0.162 0,-0.311 0.025,-0.473 0.337,-2.755 3.777,-3.167 5.909,-2.332 0.062,-0.149 0.112,-0.287 0.174,-0.436 0.212,-0.461 1.01,-0.125 0.836,0.361 -0.312,0.823 -0.561,1.621 -0.761,2.431 l 0.973,0.15 c 0,-0.05 0.025,-0.1 0.05,-0.137 1.334,-2.257 2.966,-3.79 5.322,-4.937 0.05,-0.025 0.088,-0.025 0.138,-0.037 0.037,-0.299 0.236,-0.574 0.61,-0.611 2.356,-0.175 4.202,-0.885 6.071,-2.269 0.561,-0.411 1.21,0.362 0.898,0.898 -0.087,0.274 -0.175,0.561 -0.262,0.835 1.945,-0.81 3.902,-1.596 5.884,-2.319 0.474,-0.174 0.972,0.349 0.823,0.811 -0.835,2.617 3.989,0.81 5.759,0.311 -0.012,-0.261 0.125,-0.511 0.449,-0.586 1.683,-0.386 3.241,0.723 3.553,2.194 0.473,0.536 0.96,0.985 1.583,1.322 C 0.723,8.165 0.848,7.654 1.047,7.143 1.147,6.894 1.409,6.657 1.708,6.769 2.618,7.118 3.54,7.367 4.513,7.517 4.638,7.529 4.725,7.592 4.787,7.654 6.283,4.288 7.093,0.91 7.205,-2.755"
         style="fill:#805126;fill-opacity:1;fill-rule:nonzero;stroke:none"
         id="path412" />
    </g>
    <g
       id="g414"
       transform="matrix(0.35277777,0,0,-0.35277777,113.52322,131.3277)"
       inkscape:export-xdpi="528.51959"
       inkscape:export-ydpi="528.51959">
      <path
         d="m 0,0 c 0.785,0.935 0.511,2.344 -0.611,2.854 -0.91,0.424 -2.58,0.088 -2.543,-1.171 0,-0.037 0.012,-0.075 0.025,-0.1 C -3.279,1.072 -3.216,0.499 -2.917,0.025 -2.219,-1.022 -0.748,-0.897 0,0 m 14.698,-0.162 c 1.109,0.1 2.007,1.022 1.819,2.169 -0.149,0.898 -0.947,1.583 -1.808,1.558 -0.049,0.013 -0.061,0.062 -0.124,0.062 -1.147,0.25 -2.057,-0.859 -2.032,-1.944 0.026,-1.147 1.035,-1.945 2.145,-1.845 m 5.572,13.675 c -0.013,-8.003 0.249,-15.807 -0.748,-23.735 -0.573,-0.125 -1.135,-0.287 -1.684,-0.486 -0.186,0.523 -0.336,1.047 -0.423,1.595 -0.05,0.337 -0.461,0.424 -0.723,0.3 -0.636,-0.312 -1.234,-0.761 -1.721,-1.31 -0.061,0.25 -0.149,0.499 -0.299,0.748 -0.947,1.634 -3.103,1.733 -4.238,0.549 C 10.359,-5.061 9.786,-1.321 8.452,2.207 8.302,2.581 7.766,2.443 7.841,2.044 8.713,-2.007 9.312,-6.009 9.262,-10.16 c 0,-0.623 0.785,-0.723 1.072,-0.312 0.038,0.026 0.087,0.038 0.113,0.1 0.536,1.234 2.305,1.795 3.116,0.474 0.761,-1.234 -0.387,-2.668 -1.771,-2.331 -0.162,0.037 -0.311,0 -0.435,-0.063 -1.958,1.06 -5.735,3.142 -7.717,1.92 -0.187,-0.112 -0.337,-0.336 -0.324,-0.561 0.025,-0.473 0.112,-0.91 0.237,-1.346 -1.92,0.711 -3.815,1.471 -5.697,2.281 -0.412,0.175 -1.035,-0.024 -0.998,-0.573 0.025,-0.287 0.05,-0.499 0.063,-0.673 -1.521,0.823 -3.117,1.259 -4.962,1.383 -0.024,0.137 -0.112,0.275 -0.286,0.362 -1.633,0.81 -2.905,1.82 -3.952,3.166 0.586,-0.125 1.172,-0.199 1.845,-0.237 0.474,-0.025 0.748,0.549 0.523,0.935 -2.779,4.775 -1.071,12.317 -0.099,17.465 3.927,-1.421 7.554,-1.932 11.73,-1.82 0.674,0.012 0.873,0.86 0.337,1.234 -0.823,0.549 4.699,0.125 4.563,0.137 2.343,-0.112 4.699,-0.149 7.055,-0.174 0.487,0 0.861,0.586 0.574,1.01 -0.299,0.461 4.088,1.01 6.021,1.296"
         style="fill:#e2ba92;fill-opacity:1;fill-rule:nonzero;stroke:none"
         id="path416" />
    </g>
    <g
       id="g418"
       transform="matrix(0.35277777,0,0,-0.35277777,119.35008,130.61975)"
       inkscape:export-xdpi="528.51959"
       inkscape:export-ydpi="528.51959">
      <path
         d="m 0,0 c 0.187,-1.146 -0.71,-2.069 -1.819,-2.169 -1.11,-0.1 -2.119,0.698 -2.145,1.845 -0.025,1.085 0.885,2.194 2.032,1.945 0.063,0 0.075,-0.05 0.124,-0.062 C -0.947,1.583 -0.149,0.898 0,0"
         style="fill:#1c1c1b;fill-opacity:1;fill-rule:nonzero;stroke:none"
         id="path420" />
    </g>
    <g
       id="g422"
       transform="matrix(0.35277777,0,0,-0.35277777,118.77407,137.62087)"
       inkscape:export-xdpi="528.51959"
       inkscape:export-ydpi="528.51959">
      <path
         d="m 0,0 c 0.573,0.449 1.471,-0.112 1.06,-0.823 -1.808,-3.054 -6.931,-3.503 -9.487,-1.234 -0.274,0.249 0.025,0.798 0.386,0.648 1.347,-0.536 2.668,-0.872 4.127,-0.66 C -2.269,-1.833 -1.246,-0.997 0,0"
         style="fill:#1c1c1b;fill-opacity:1;fill-rule:nonzero;stroke:none"
         id="path424" />
    </g>
    <g
       id="g426"
       transform="matrix(0.35277777,0,0,-0.35277777,117.60859,146.49111)"
       inkscape:export-xdpi="528.51959"
       inkscape:export-ydpi="528.51959">
      <path
         d="M 0,0 C 0.025,-0.087 0.075,-0.149 0.125,-0.212 -3.814,-2.406 -9.574,-1.01 -13.75,0.1 c 0.013,0.037 0.038,0.075 0.038,0.125 0.174,2.044 0.299,4.163 0.236,6.22 1.06,-0.087 2.245,-0.711 3.404,-1.034 2.405,-0.686 4.812,-0.898 7.304,-0.948 0.363,0 0.562,0.287 0.612,0.611 0.199,1.645 0.224,1.296 -0.026,2.518 0.586,-0.087 1.148,-0.112 1.708,-0.1 C -0.96,5.062 -0.798,2.306 0,0"
         style="fill:#e2ba92;fill-opacity:1;fill-rule:nonzero;stroke:none"
         id="path428" />
    </g>
    <g
       id="g430"
       transform="matrix(0.35277777,0,0,-0.35277777,116.29824,117.79589)"
       inkscape:export-xdpi="528.51959"
       inkscape:export-ydpi="528.51959">
      <path
         d="m 0,0 c 0.523,0.037 0.897,-0.624 0.611,-1.047 -1.023,-1.521 -1.808,-3.079 -2.419,-4.787 -0.249,-0.038 -0.499,-0.087 -0.748,-0.137 -0.423,-0.075 -0.336,-0.786 0.1,-0.748 0.112,0.012 0.237,0.025 0.349,0.025 -0.324,-0.723 -1.508,-0.349 -1.271,0.461 0.049,0.174 1.957,4.438 1.894,4.563 -0.436,0.909 -5.834,-0.686 -7.118,-0.998 -5.447,-1.371 -10.409,-3.74 -15.059,-6.881 -0.299,-0.2 -0.648,-0.05 -0.86,0.199 0,0.013 -0.012,0.025 -0.025,0.038 -0.237,0.324 -1.857,2.543 -1.621,2.742 -0.934,-0.099 -2.393,-4.737 -2.842,-6.432 0.312,-0.274 0.324,-0.835 -0.212,-0.998 -1.495,-0.411 -2.854,-0.935 -4.151,-1.595 0.848,0.112 1.696,0.212 2.543,0.324 0.462,0.063 0.823,-0.598 0.549,-0.972 -3.092,-4.264 -2.979,-9.213 -2.68,-14.199 1.047,0.474 2.106,0.785 3.303,0.91 0.1,0 0.175,-0.025 0.237,-0.05 0.199,0.1 0.511,-0.075 0.437,-0.336 -0.45,-1.484 -4.6,-11.943 -2.93,-12.03 0.311,-0.012 0.561,-0.199 0.661,-0.499 0.112,-0.336 0.149,-0.71 0.162,-1.122 0.062,-2.842 -1.609,-7.292 1.982,-6.47 0.511,0.125 0.81,-0.361 0.698,-0.748 -0.05,-0.162 -0.174,-0.311 -0.387,-0.386 -0.997,-0.349 -2.007,-0.66 -3.029,-0.922 -0.411,-0.113 -0.86,0.212 -0.847,0.636 0.049,1.944 0.025,3.914 0.161,5.846 -0.025,0.785 0.075,1.546 0.262,2.319 -0.149,-0.05 -0.299,-0.063 -0.449,-0.038 -0.099,0.237 -0.735,0.611 -0.922,0.985 -1.334,2.78 1.97,8.689 3.615,11.768 -1.122,-0.424 -2.206,-0.898 -3.228,-1.533 -0.487,-0.3 -0.998,0.099 -1.048,0.598 -0.511,5.148 -0.66,10.347 2.107,14.772 -1.309,-0.175 -2.618,-0.349 -3.927,-0.524 -0.548,-0.074 -1.234,0.636 -0.648,1.098 2.057,1.595 4.264,2.779 6.819,3.253 0.436,3.291 1.683,5.784 3.927,8.315 0.411,0.461 1.059,0.05 1.109,-0.462 0.511,-4.687 5.772,-0.099 7.38,0.674 1.546,0.735 3.129,1.371 4.75,1.932 C -8.614,-1.01 -4.363,-0.287 0,0"
         style="fill:#1c1c1b;fill-opacity:1;fill-rule:nonzero;stroke:none"
         id="path432" />
    </g>
    <g
       id="g434"
       transform="matrix(0.35277777,0,0,-0.35277777,115.66056,119.85399)"
       inkscape:export-xdpi="528.51959"
       inkscape:export-ydpi="528.51959">
      <path
         d="m 0,0 c -0.087,-0.25 -0.175,-0.511 -0.25,-0.761 -0.012,-0.037 -0.024,-0.062 -0.049,-0.099 -0.113,0 -0.237,-0.013 -0.349,-0.025 -0.436,-0.038 -0.524,0.673 -0.1,0.748 C -0.499,-0.087 -0.25,-0.038 0,0"
         style="fill:#1c1c1b;fill-opacity:1;fill-rule:nonzero;stroke:none"
         id="path436" />
    </g>
    <g
       id="g438"
       transform="matrix(0.35277777,0,0,-0.35277777,113.30774,130.3207)"
       inkscape:export-xdpi="528.51959"
       inkscape:export-ydpi="528.51959">
      <path
         d="m 0,0 c 1.122,-0.511 1.396,-1.919 0.611,-2.854 -0.748,-0.898 -2.219,-1.023 -2.917,0.024 -0.299,0.474 -0.362,1.048 -0.212,1.559 -0.013,0.024 -0.025,0.062 -0.025,0.1 C -2.581,0.087 -0.91,0.424 0,0"
         style="fill:#1c1c1b;fill-opacity:1;fill-rule:nonzero;stroke:none"
         id="path440" />
    </g>
    <g
       id="g442"
       transform="matrix(0.35277777,0,0,-0.35277777,107.90738,133.75083)"
       inkscape:export-xdpi="528.51959"
       inkscape:export-ydpi="528.51959">
      <path
         d="M 0,0 C -0.474,1.471 -0.698,3.017 -0.661,4.562 -2.344,4.288 -4.774,3.378 -4.214,1.222 -3.74,-0.636 -1.458,-0.1 0,0 M 1.409,-1.16 C 1.583,-1.646 0.785,-1.982 0.573,-1.521 0.511,-1.372 0.461,-1.234 0.399,-1.084 -1.733,-1.92 -5.173,-1.508 -5.51,1.247 -5.535,1.409 -5.535,1.558 -5.535,1.72 c 0,2.493 2.605,3.84 4.911,3.591 0.025,0.411 0.075,0.822 0.138,1.233 0.062,0.387 0.698,0.287 0.673,-0.087 -0.1,-1.82 0.062,-3.515 0.461,-5.186 0.2,-0.81 0.449,-1.608 0.761,-2.431"
         style="fill:#1c1c1b;fill-opacity:1;fill-rule:nonzero;stroke:none"
         id="path444" />
    </g>
    <g
       id="g446"
       transform="matrix(0.35277777,0,0,-0.35277777,107.6743,132.14128)"
       inkscape:export-xdpi="528.51959"
       inkscape:export-ydpi="528.51959">
      <path
         d="M 0,0 C -0.038,-1.546 0.187,-3.092 0.661,-4.562 -0.798,-4.663 -3.079,-5.198 -3.553,-3.341 -4.114,-1.185 -1.683,-0.274 0,0"
         style="fill:#e2ba92;fill-opacity:1;fill-rule:nonzero;stroke:none"
         id="path448" />
    </g>
    <g
       id="g450"
       transform="matrix(0.35277777,0,0,-0.35277777,107.63899,121.08095)"
       inkscape:export-xdpi="528.51959"
       inkscape:export-ydpi="528.51959">
      <path
         d="m 0,0 c 0.013,-0.013 0.025,-0.025 0.025,-0.038 0,0 -0.012,0.013 -0.037,0.038 z"
         style="fill:#1c1c1b;fill-opacity:1;fill-rule:nonzero;stroke:none"
         id="path452" />
    </g>
    <text
       xml:space="preserve"
       style="font-style:normal;font-weight:normal;font-size:6.35px;line-height:1.25;font-family:sans-serif;letter-spacing:-0.529167px;fill:#000000;fill-opacity:1;stroke:none;stroke-width:0.264583"
       x="90.758255"
       y="161.4825"
       id="text51"
       inkscape:export-xdpi="528.51959"
       inkscape:export-ydpi="528.51959"><tspan
         sodipodi:role="line"
         id="tspan49"
         x="90.758255"
         y="161.4825"
         style="font-style:normal;font-variant:normal;font-weight:normal;font-stretch:normal;font-size:6.35px;font-family:Comfortaa;-inkscape-font-specification:Comfortaa;stroke-width:0.264583">Abdallah Hodieb</tspan></text>
  </g>
</svg>
